<svg xmlns="http://www.w3.org/2000/svg" xml:space="preserve" width="1000px" height="416.039px" x="0px" y="0px" viewBox="0 0 1000 416.039"><path fill="#EC0382" d="M349.704 172.073H215.936a5.942 5.942 0 0 1-5.942-5.942c0 3.272 2.66 7.469 5.942 9.37l133.768 77.233c3.282 1.883 5.933.758 5.933-2.524v-78.612a8.237 8.237 0 0 0-.604-2.917 5.924 5.924 0 0 1-5.33 3.392"/><path fill="#801C8F" d="m349.704 162.236-61.335-35.416-72.433 41.825c-3.282 1.892-5.942.768-5.942-2.514a5.942 5.942 0 0 0 5.942 5.951h133.768c2.34 0 4.388-1.399 5.33-3.392a13.146 13.146 0 0 0-5.33-6.454"/><path fill="#FAB220" d="M355.628 3.429c0-3.273-2.652-4.407-5.924-2.505L215.927 78.156c-3.282 1.883-5.951 6.08-5.951 9.352a5.942 5.942 0 0 1 5.951-5.924h133.767c2.34 0 4.38 1.372 5.33 3.374a8.274 8.274 0 0 0 .604-2.907Z"/><path fill="#F57615" d="M349.704 81.575H215.936a5.942 5.942 0 0 0-5.942 5.933c0-3.282 2.66-4.397 5.942-2.504l72.433 41.816 61.344-35.417c2.331-1.353 4.379-3.904 5.32-6.454a5.906 5.906 0 0 0-5.33-3.374"/><path fill="#3D2174" d="m215.936 168.645 72.433-41.825-72.433-41.816c-3.282-1.893-5.942-.778-5.942 2.504v78.623c0 3.282 2.66 4.406 5.942 2.514M0 253.465h34.932v65.832l61.581-65.832h45.683l-70.54 73.667 76.583 84.875H99.43l-64.497-75.24v75.24H0Z"/><path fill="#3D2174" d="M292.218 400.808c-20.597 10.751-43.215 15.231-66.509 15.231-49.477 0-85.533-32.473-85.533-83.303s36.056-83.303 85.533-83.303c25.077 0 47.256 5.604 63.145 20.378l-24.629 26.878c-9.407-9.855-20.826-15.002-38.516-15.002-29.776 0-49.257 21.493-49.257 51.05 0 29.565 19.481 51.058 49.257 51.058 15.231 0 26.43-4.26 32.921-7.844v-25.753h-28.441v-32.245h62.03Zm381.655-109.01v42.355h23.24v-84.71h-23.24Zm152.61 39.265v81.63h23.239v-163.26h-23.24Zm149.51 0v81.63h24.016v-163.26h-24.017Zm-351.697-28.496v6.93h-31.76v-13.86h31.76Zm-55.776-10.01v36.961h79.792v-73.932h-24.016v20.798h-31.76v-20.798H568.52zm-52.677 9.242v20.022h-65.841v-40.043h65.841Zm-89.858 0v40.043h44.925v30.809h-62.743v20.02h149.51v-20.02H494.15v-30.81h45.71v-80.084H425.985Zm295.92-28.496v10.011h55v23.102h-54.222v69.544l26.567-.466c27.655-.54 40.362-1.308 55.931-3.227 13.787-1.774 14.408-1.93 13.942-3.392-.155-.695-.695-5.156-1.161-10.01-.384-4.855-.85-8.86-1.006-9.015-.082-.155-1.554.082-3.254.466-10.303 2.387-36.715 4.617-54.377 4.617h-12.626v-28.496h53.445v-63.144h-78.238Zm151.833 46.214v56.214H891.4c18.669 0 40.747-.996 52.833-2.303 9.992-1.161 21.922-3.081 22.617-3.776.695-.622-2.249-17.864-3.099-18.64-.31-.302-4.333.082-9.06.85-9.919 1.618-24.71 2.77-43.534 3.537l-13.403.467V327.99h51.123v-19.253h-51.123v-25.415h54.222v-20.021h-78.238ZM587.883 347.62v9.626h85.99v7.698H588.66v46.213h113.874v-20.03h-90.635v-7.698h85.214v-45.436h-109.23Z"/></svg>